<?xml version="1.0" encoding="UTF-8"?>
<svg xmlns="http://www.w3.org/2000/svg" version="1.1" width="200" height="200" viewBox="0 0 200 200"><rect x="0" y="0" width="200" height="200" fill="#ffffff"/><g transform="scale(7.407)"><g transform="translate(1,1)"><path fill-rule="evenodd" d="M8 0L8 2L9 2L9 4L8 4L8 9L7 9L7 8L5 8L5 9L7 9L7 10L3 10L3 8L0 8L0 9L2 9L2 10L1 10L1 11L0 11L0 12L1 12L1 13L2 13L2 14L0 14L0 15L2 15L2 16L0 16L0 17L2 17L2 16L4 16L4 17L7 17L7 16L8 16L8 18L10 18L10 16L11 16L11 19L10 19L10 20L11 20L11 19L12 19L12 18L14 18L14 17L15 17L15 18L16 18L16 20L15 20L15 19L14 19L14 20L15 20L15 21L14 21L14 22L15 22L15 21L16 21L16 22L17 22L17 21L19 21L19 24L17 24L17 23L16 23L16 24L15 24L15 25L19 25L19 24L21 24L21 25L22 25L22 24L21 24L21 22L23 22L23 23L25 23L25 20L23 20L23 21L22 21L22 20L21 20L21 19L22 19L22 18L23 18L23 17L24 17L24 19L25 19L25 17L24 17L24 16L23 16L23 17L22 17L22 18L21 18L21 16L19 16L19 15L18 15L18 16L14 16L14 17L13 17L13 16L12 16L12 14L13 14L13 15L17 15L17 14L16 14L16 13L18 13L18 14L19 14L19 11L20 11L20 10L19 10L19 9L21 9L21 12L22 12L22 11L23 11L23 10L24 10L24 11L25 11L25 8L23 8L23 10L22 10L22 9L21 9L21 8L17 8L17 10L16 10L16 8L14 8L14 10L13 10L13 6L12 6L12 9L11 9L11 4L12 4L12 3L11 3L11 4L10 4L10 0ZM16 0L16 1L17 1L17 0ZM12 1L12 2L13 2L13 5L14 5L14 3L15 3L15 4L16 4L16 7L17 7L17 2L16 2L16 3L15 3L15 2L13 2L13 1ZM9 4L9 5L10 5L10 4ZM9 6L9 9L8 9L8 12L7 12L7 11L6 11L6 12L4 12L4 11L3 11L3 10L2 10L2 12L4 12L4 13L3 13L3 14L2 14L2 15L3 15L3 14L4 14L4 15L5 15L5 16L7 16L7 15L9 15L9 16L10 16L10 15L9 15L9 12L10 12L10 11L11 11L11 12L12 12L12 13L13 13L13 14L14 14L14 12L15 12L15 13L16 13L16 12L15 12L15 11L13 11L13 10L12 10L12 11L11 11L11 10L10 10L10 6ZM14 6L14 7L15 7L15 6ZM17 10L17 11L18 11L18 10ZM12 11L12 12L13 12L13 11ZM6 12L6 13L7 13L7 12ZM24 12L24 13L23 13L23 14L20 14L20 15L23 15L23 14L24 14L24 15L25 15L25 12ZM4 13L4 14L5 14L5 15L7 15L7 14L5 14L5 13ZM10 13L10 14L11 14L11 13ZM17 17L17 20L20 20L20 17ZM18 18L18 19L19 19L19 18ZM8 19L8 20L9 20L9 19ZM12 20L12 21L10 21L10 22L8 22L8 25L9 25L9 23L12 23L12 24L11 24L11 25L13 25L13 23L12 23L12 22L13 22L13 20ZM23 21L23 22L24 22L24 21ZM24 24L24 25L25 25L25 24ZM0 0L0 7L7 7L7 0ZM1 1L1 6L6 6L6 1ZM2 2L2 5L5 5L5 2ZM18 0L18 7L25 7L25 0ZM19 1L19 6L24 6L24 1ZM20 2L20 5L23 5L23 2ZM0 18L0 25L7 25L7 18ZM1 19L1 24L6 24L6 19ZM2 20L2 23L5 23L5 20Z" fill="#000000"/></g></g></svg>
